Coordinates
version=1
nRows=14
nColumns=24
inDegrees=yes

Units are S.I. units (second, meters, Newtons, ...)
Angles are in degrees.

endheader
time	pelvis_tilt	pelvis_list	pelvis_rotation	pelvis_tx	pelvis_ty	pelvis_tz	hip_flexion_r	hip_adduction_r	hip_rotation_r	knee_angle_r	ankle_angle_r	subtalar_angle_r	mtp_angle_r	hip_flexion_l	hip_adduction_l	hip_rotation_l	knee_angle_l	ankle_angle_l	subtalar_angle_l	mtp_angle_l	lumbar_extension	lumbar_bending	lumbar_rotation
      5.73000000	     -2.93019941	     -0.68083663	     -3.91092445	      1.38089721	      1.03521357	     -0.26283486	     -2.37055671	      5.44724772	     14.81517267	     -6.94784018	     13.08506348	    -15.86069854	      0.00000000	     28.67023713	     -4.62515270	    -13.76945751	    -50.28974705	      7.59878346	     -3.42083732	      0.00000000	    -10.79733846	     -1.24179356	      3.36576163
      5.73500000	     -2.96288035	     -0.64617778	     -4.01843020	      1.38679710	      1.03505560	     -0.26274379	     -2.84347947	      5.34939403	     14.98166293	     -6.63258159	     12.95018819	    -16.01952572	      0.00000000	     28.77211789	     -4.50083558	    -13.84737985	    -48.68093494	      7.85002692	     -3.17173303	      0.00000000	    -10.78281710	     -1.32095665	      3.52287125
      5.74000000	     -3.02968867	     -0.62991371	     -4.12539418	      1.39271676	      1.03478774	     -0.26266269	     -3.26699643	      5.27262016	     15.11825077	     -6.34966617	     12.86608624	    -16.11254526	      0.00000000	     28.88351296	     -4.39309474	    -13.91388371	    -47.02477781	      8.07417330	     -2.94788061	      0.00000000	    -10.72335985	     -1.37740804	      3.67355555
      5.74500000	     -3.06230862	     -0.61065083	     -4.24264419	      1.39865812	      1.03452896	     -0.26262061	     -3.72509054	      5.18406930	     15.27877464	     -6.06884735	     12.76298505	    -16.23231176	      0.00000000	     28.92081655	     -4.27644703	    -13.99359740	    -45.30205472	      8.26083700	     -2.75887803	      0.00000000	    -10.71330445	     -1.42818709	      3.84680701
      5.75000000	     -3.14275860	     -0.62329658	     -4.32571514	      1.40465969	      1.03413686	     -0.26261291	     -4.13105411	      5.13294164	     15.37403595	     -5.80260407	     12.69851962	    -16.27522763	      0.00000000	     28.98941157	     -4.17794546	    -14.01927269	    -43.54782520	      8.43685547	     -2.53948466	      0.00000000	    -10.63164526	     -1.43467285	      3.95163094
      5.75500000	     -3.22229769	     -0.63984685	     -4.40888520	      1.41066769	      1.03370026	     -0.26264682	     -4.52553700	      5.08517244	     15.45285878	     -5.56122791	     12.64184320	    -16.31228760	      0.00000000	     29.02482903	     -4.07137883	    -14.02720072	    -41.73546292	      8.58378783	     -2.34369695	      0.00000000	    -10.56126628	     -1.43366248	      4.08977532
      5.76000000	     -3.23204088	     -0.64354246	     -4.51102888	      1.41674371	      1.03332069	     -0.26267996	     -4.99993179	      5.01107615	     15.58518477	     -5.31639060	     12.58774107	    -16.36543273	      0.00000000	     28.93946650	     -3.94551038	    -14.05174330	    -39.85004291	      8.69207265	     -2.20054916	      0.00000000	    -10.56701483	     -1.45413039	      4.23097124
      5.76500000	     -3.25612965	     -0.67469004	     -4.58790728	      1.42281070	      1.03286223	     -0.26279301	     -5.44706361	      4.96755362	     15.66671057	     -5.09811660	     12.54759688	    -16.38728733	      0.00000000	     28.84984297	     -3.82605100	    -14.01257277	    -37.93020281	      8.78762023	     -2.02820574	      0.00000000	    -10.57053363	     -1.42766777	      4.35868918
      5.77000000	     -3.26940037	     -0.71510942	     -4.66326050	      1.42892092	      1.03237769	     -0.26292461	     -5.90146600	      4.93096014	     15.74206721	     -4.89721280	     12.52627911	    -16.37386818	      0.00000000	     28.71689563	     -3.70591138	    -13.94635415	    -35.96219112	      8.83679406	     -1.87470968	      0.00000000	    -10.58067352	     -1.39187967	      4.48289704
      5.77500000	     -3.27830102	     -0.76261754	     -4.73479642	      1.43507338	      1.03185875	     -0.26307092	     -6.35553292	      4.90095874	     15.80357321	     -4.71391244	     12.52352940	    -16.32704511	      0.00000000	     28.54882860	     -3.58357219	    -13.84054929	    -33.95212510	      8.84971508	     -1.71148332	      0.00000000	    -10.59551791	     -1.35215351	      4.58959166
      5.78000000	     -3.27566247	     -0.82727511	     -4.80168589	      1.44126464	      1.03131047	     -0.26325475	     -6.81777465	      4.88645719	     15.85240868	     -4.54746243	     12.53536066	    -16.24975103	      0.00000000	     28.34253749	     -3.46922484	    -13.70253030	    -31.90939809	      8.82060200	     -1.55780981	      0.00000000	    -10.62106347	     -1.28629099	      4.69072411
      5.78500000	     -3.23580413	     -0.89863178	     -4.86820289	      1.44750639	      1.03076378	     -0.26349109	     -7.31236296	      4.87506150	     15.86248639	     -4.39968449	     12.55776936	    -16.15567832	      0.00000000	     28.06584543	     -3.35088889	    -13.54673392	    -29.82890224	      8.77713463	     -1.41970920	      0.00000000	    -10.69268642	     -1.20789826	      4.79761552
      5.79000000	     -3.26350301	     -0.98502372	     -4.92570839	      1.45374282	      1.03009300	     -0.26376687	     -7.72380223	      4.88308557	     15.91747287	     -4.28609511	     12.59841840	    -16.03300443	      0.00000000	     27.84719748	     -3.24465864	    -13.31153196	    -27.74082903	      8.66452905	     -1.24657307	      0.00000000	    -10.69124896	     -1.10119978	      4.87856756
      5.79500000	     -3.23620029	     -1.07297922	     -4.98580156	      1.46006263	      1.02945189	     -0.26408988	     -8.18916944	      4.88692194	     15.91849970	     -4.18626954	     12.64515216	    -15.88613583	      0.00000000	     27.53806841	     -3.13044042	    -13.06192761	    -25.62153959	      8.53594256	     -1.12032840	      0.00000000	    -10.74991792	     -0.98547452	      4.97498319
